<?xml version="1.0" encoding="UTF-8" standalone="no"?>
<!-- Created with Inkscape (http://www.inkscape.org/) -->

<svg
   xmlns:dc="http://purl.org/dc/elements/1.1/"
   xmlns:cc="http://creativecommons.org/ns#"
   xmlns:rdf="http://www.w3.org/1999/02/22-rdf-syntax-ns#"
   xmlns:svg="http://www.w3.org/2000/svg"
   xmlns="http://www.w3.org/2000/svg"
   xmlns:sodipodi="http://sodipodi.sourceforge.net/DTD/sodipodi-0.dtd"
   xmlns:inkscape="http://www.inkscape.org/namespaces/inkscape"
   width="210mm"
   height="297mm"
   viewBox="0 0 210 297"
   version="1.1"
   id="svg8"
   inkscape:version="0.92.4 (5da689c313, 2019-01-14)"
   sodipodi:docname="TargetArt.svg">
  <defs
     id="defs2">
    <filter
       inkscape:collect="always"
       style="color-interpolation-filters:sRGB"
       id="filter1512"
       x="-0.026095821"
       width="1.0521916"
       y="-0.058020649"
       height="1.1160413">
      <feGaussianBlur
         inkscape:collect="always"
         stdDeviation="2.2808106"
         id="feGaussianBlur1514" />
    </filter>
  </defs>
  <sodipodi:namedview
     id="base"
     pagecolor="#ffffff"
     bordercolor="#666666"
     borderopacity="1.0"
     inkscape:pageopacity="0.0"
     inkscape:pageshadow="2"
     inkscape:zoom="0.175"
     inkscape:cx="-2803.0957"
     inkscape:cy="1362.3265"
     inkscape:document-units="mm"
     inkscape:current-layer="layer1"
     showgrid="false"
     inkscape:window-width="1920"
     inkscape:window-height="1057"
     inkscape:window-x="-8"
     inkscape:window-y="-8"
     inkscape:window-maximized="1" />
  <metadata
     id="metadata5">
    <rdf:RDF>
      <cc:Work
         rdf:about="">
        <dc:format>image/svg+xml</dc:format>
        <dc:type
           rdf:resource="http://purl.org/dc/dcmitype/StillImage" />
        <dc:title></dc:title>
      </cc:Work>
    </rdf:RDF>
  </metadata>
  <g
     inkscape:label="Layer 1"
     inkscape:groupmode="layer"
     id="layer1">
    <rect
       style="opacity:1;fill:#000000;fill-opacity:1;stroke:#fffff2;stroke-width:0.75162047;stroke-miterlimit:4;stroke-dasharray:none;stroke-dashoffset:0;stroke-opacity:1"
       id="rect815-2"
       width="736.86072"
       height="649.38409"
       x="425.31967"
       y="-319.48972" />
    <rect
       style="opacity:1;fill:#000000;fill-opacity:1;stroke:#fffff2;stroke-width:1.22133791;stroke-miterlimit:4;stroke-dasharray:none;stroke-dashoffset:0;stroke-opacity:1"
       id="rect815"
       width="1202.0576"
       height="1051.0811"
       x="-1273.4485"
       y="-656.89453" />
    <path
       style="opacity:1;fill:#ffffff;fill-opacity:1;stroke:#fffff2;stroke-width:0.60823613;stroke-miterlimit:4;stroke-dasharray:none;stroke-dashoffset:0;stroke-opacity:1"
       mask="none"
       clip-path="none"
       d="m -912.50842,-248.37645 a 175.3867,199.57718 0 0 1 71.89535,160.859428 175.3867,199.57718 0 0 1 -76.04703,164.21272 191.59439,191.59439 0 0 0 92.63259,-163.83496 191.59439,191.59439 0 0 0 -88.48091,-161.237188 z m -209.43738,2.0221 a 191.59439,191.59439 0 0 0 -85.2707,159.215088 191.59439,191.59439 0 0 0 88.886,161.48626 175.3867,199.57718 0 0 1 -73.056,-161.86402 175.3867,199.57718 0 0 1 69.4407,-158.837328 z"
       id="path817"
       inkscape:connector-curvature="0"
       inkscape:export-xdpi="33.857422"
       inkscape:export-ydpi="33.857422" />
    <circle
       style="opacity:1;fill:#ffffff;fill-opacity:1;stroke:#fffff2;stroke-width:0.52916664;stroke-miterlimit:4;stroke-dasharray:none;stroke-dashoffset:0;stroke-opacity:1"
       id="path830"
       cx="-1045.7192"
       cy="-456.76971"
       r="142.11905"
       inkscape:export-xdpi="45.668182"
       inkscape:export-ydpi="45.668182" />
    <path
       style="opacity:1;fill:#ffffff;fill-opacity:1;stroke:#fffff2;stroke-width:0.50238061;stroke-miterlimit:4;stroke-dasharray:none;stroke-dashoffset:0;stroke-opacity:1"
       d="M -580.63231,-217.3205 A 134.92509,134.92509 0 0 0 -715.55745,-82.39536 134.92509,134.92509 0 0 0 -580.63231,52.529769 134.92509,134.92509 0 0 0 -445.70744,-82.39536 134.92509,134.92509 0 0 0 -580.63231,-217.3205 Z m 20.15828,23.75826 a 113.07764,113.07764 0 0 1 91.13798,91.97538 h -91.13798 z m -40.97198,0.096 v 91.87938 h -90.54464 a 113.07764,113.07764 0 0 1 90.54464,-91.87938 z m -90.1049,132.851367 h 90.1049 V 28.68315 a 113.07764,113.07764 0 0 1 -90.1049,-89.298023 z m 131.07688,0 h 90.77374 a 113.07764,113.07764 0 0 1 -90.77374,89.444776 z"
       id="path830-0"
       inkscape:connector-curvature="0" />
    <path
       inkscape:connector-curvature="0"
       style="opacity:1;fill:#ffffff;fill-opacity:1;stroke:#fffff2;stroke-width:0.59409004;stroke-miterlimit:4;stroke-dasharray:none;stroke-dashoffset:0;stroke-opacity:1"
       d="m -546.36578,-594.67204 v 85.37343 h 84.21416 a 159.22112,159.89087 0 0 0 -84.21416,-85.37343 z m -126.25716,0.56536 a 159.22112,159.89087 0 0 0 -83.0708,84.80807 h 83.0708 z m -81.61087,211.59664 a 159.22112,159.89087 0 0 0 81.61087,81.28532 v -81.28532 z m 207.86803,0 v 81.56861 a 159.22112,159.89087 0 0 0 82.39669,-81.56861 z"
       id="path830-0-5"
       inkscape:export-xdpi="44.169006"
       inkscape:export-ydpi="44.169006" />
    <path
       style="fill:#ffffff;stroke:#000000;stroke-width:0.26458332px;stroke-linecap:butt;stroke-linejoin:miter;stroke-opacity:1;filter:url(#filter1512)"
       d="m -1173.8478,215.75006 c 0.1951,-0.0975 9.2268,-3.48648 10.6908,-6.41446 1.4747,-2.94929 -2.5894,-1.91253 2.1382,-4.27632 2.9492,-1.47464 1.9125,2.58943 4.2763,-2.13815 0.3187,-0.63748 -0.504,-1.63419 0,-2.13816 0.5039,-0.50397 1.5007,0.31874 2.1381,0 0.9016,-0.45076 1.4255,-1.42544 2.1382,-2.13816 0.7127,-0.71272 1.6874,-1.23663 2.1381,-2.13815 0.3188,-0.63748 -0.5039,-1.63419 0,-2.13816 0.504,-0.50397 1.5007,0.31874 2.1382,0 4.7276,-2.36379 0.6635,-1.32703 2.1382,-4.27631 1.9682,-3.93638 4.4462,-0.33994 6.4144,-4.27631 2.693,-5.38601 -8.1209,1.85035 4.2763,-6.41447 0.5931,-0.39535 1.5007,0.31874 2.1382,0 0.9015,-0.45076 1.2995,-1.57906 2.1381,-2.13816 4.9935,-3.32896 12.1119,-5.22366 17.1053,-8.55262 0.8387,-0.55911 1.2366,-1.6874 2.1382,-2.13816 0.6374,-0.31874 1.5007,0.31874 2.1381,0 0.9016,-0.45076 1.2366,-1.68739 2.1382,-2.13816 0.6374,-0.31873 1.6342,0.50397 2.1381,0 0.504,-0.50396 -0.5039,-1.63418 0,-2.13815 0.504,-0.50397 1.4255,0 2.1382,0 2.8508,0 5.7017,0 8.5526,0 1.4254,0 2.8509,0 4.2763,0 0.7127,0 1.5007,-0.31874 2.1382,0 0.9015,0.45076 1.2366,1.68739 2.1381,2.13815 0.6375,0.31874 1.6342,-0.50396 2.1382,0 0.504,0.50397 -0.3187,1.50069 0,2.13816 0.4507,0.90153 1.4254,1.42544 2.1382,2.13816 0.7127,0.71272 1.4254,1.42543 2.1381,2.13815 0.7127,0.71272 1.6874,1.23663 2.1382,2.13816 0.3187,0.63747 -0.3188,1.50068 0,2.13816 0.9015,1.80305 3.3747,2.47326 4.2763,4.27631 0.3187,0.63747 -0.3188,1.50068 0,2.13815 0.4507,0.90153 1.6874,1.23663 2.1381,2.13816 0.3188,0.63748 -0.3187,1.50068 0,2.13816 0.4508,0.90152 1.4255,1.42543 2.1382,2.13815 0.7127,0.71272 1.2366,1.6874 2.1381,2.13816 0.6375,0.31874 1.8195,-0.63748 2.1382,0 0.6375,1.27495 -0.7907,3.09028 0,4.27631 0.884,1.32603 2.9503,1.25414 4.2763,2.13816 0.8387,0.5591 1.2366,1.68739 2.1382,2.13815 0.6374,0.31874 1.462,-0.22538 2.1381,0 15.4876,5.16252 -3.371,-0.61643 6.4145,4.27632 0.4792,0.23961 8.0445,0 8.5526,0 0.5081,0 8.0734,0.23961 8.5527,0 0.9015,-0.45077 1.2366,-1.6874 2.1381,-2.13816 0.6375,-0.31874 1.4254,0 2.1382,0 1.4254,0 2.8934,0.34572 4.2763,0 1.5461,-0.38653 2.9502,-1.25414 4.2763,-2.13816 1.9464,-1.29759 4.5193,-5.4669 6.4144,-6.41447 0.6375,-0.31873 1.6342,0.50397 2.1382,0 4.4239,-4.42392 -6.7603,0.17294 2.1382,-4.27631 0.6374,-0.31873 1.5006,0.31874 2.1381,0 0.9015,-0.45076 1.2367,-1.68739 2.1382,-2.13815 0.6375,-0.31874 1.5007,0.31873 2.1381,0 0.9016,-0.45077 1.2995,-1.57906 2.1382,-2.13816 1.326,-0.88402 2.95025,-1.25414 4.27629,-2.13816 1.6773,-1.1182 2.47327,-3.37478 4.2763,-4.27631 0.63749,-0.31874 1.50069,0.31874 2.13818,0 2.56577,-1.28289 3.84868,-5.13157 6.41445,-6.41447 0.63749,-0.31873 1.6342,0.50397 2.13815,0 0.50398,-0.50396 -0.31872,-1.50068 0,-2.13815 0.45077,-0.90153 1.42544,-1.42544 2.13818,-2.13816 0.71271,-0.71272 1.23661,-1.68739 2.13815,-2.13816 0.65072,-0.32535 5.45153,0 6.41445,0 0.71274,0 1.6342,-0.50396 2.13818,0 1.00793,1.00794 -1.00796,3.26838 0,4.27632 0.50395,0.50397 1.63417,-0.50397 2.13815,0 1.06908,1.06908 -1.06908,5.34539 0,6.41447 0.50395,0.50396 1.63417,-0.50397 2.13815,0 0.50398,0.50396 0,1.42543 0,2.13815 0,0.71272 0,1.42544 0,2.13816 0,0.71272 0,1.42544 0,2.13815 0,0.71272 0.31874,1.50069 0,2.13816 -0.45077,0.90153 -1.68738,1.23663 -2.13815,2.13816 -0.31874,0.63747 0.31874,1.50068 0,2.13815 -0.45077,0.90153 -1.42544,1.42544 -2.13815,2.13816 -0.71274,0.71272 -1.23664,1.68739 -2.13818,2.13815 -0.63746,0.31874 -1.63417,-0.50396 -2.13815,0 -0.50395,0.50397 0.31874,1.50069 0,2.13816 -0.45074,0.90153 -1.42544,1.42544 -2.13815,2.13816 -0.71271,0.71272 -1.23664,1.68739 -2.13815,2.13815 -0.63749,0.31874 -1.6342,-0.50397 -2.13815,0 -0.50398,0.50397 0.31872,1.50068 0,2.13816 -0.45077,0.90153 -1.68741,1.23663 -2.13818,2.13816 -0.31872,0.63747 0.50398,1.63418 0,2.13815 -4.42391,4.42392 0.17296,-6.76034 -4.2763,2.13816 -0.63749,1.27495 1.00793,3.26837 0,4.27631 -0.50398,0.50397 -1.50069,-0.31874 -2.13815,0 -0.90154,0.45076 -1.42544,1.42544 -2.13815,2.13816 -0.71274,0.71272 -1.68741,1.23663 -2.13818,2.13815 -0.31872,0.63748 0.63749,1.81942 0,2.13816 -1.27495,0.63747 -2.92402,-0.45076 -4.2763,0 -6.67389,2.22462 0.71271,1.42544 -2.13815,4.27631 -1.12691,1.12691 -2.76444,1.63419 -4.27634,2.13816 -0.6761,0.22538 -1.6342,-0.50397 -2.1381,0 -0.504,0.50397 0.3187,1.50068 0,2.13815 -0.4508,0.90153 -1.4255,1.42544 -2.1382,2.13816 -0.7127,0.71272 -1.2366,1.68739 -2.1381,2.13816 -0.6375,0.31873 -1.6342,-0.50397 -2.1382,0 -0.504,0.50396 0.3187,1.50068 0,2.13815 -0.4508,0.90153 -1.4254,1.42544 -2.1382,2.13816 -0.7127,0.71272 -1.2366,1.68739 -2.1381,2.13815 -0.6375,0.31874 -1.5007,-0.31873 -2.1382,0 -0.9015,0.45077 -1.2995,1.57906 -2.1381,2.13816 -2.6521,1.76804 -5.7018,2.85088 -8.5526,4.27631 -2.8509,1.42544 -5.5289,3.26838 -8.5527,4.27632 -0.6761,0.22538 -1.462,-0.22538 -2.1381,0 -15.4876,5.16251 3.371,-0.61644 -6.4145,4.27631 -0.6375,0.31874 -1.462,-0.22538 -2.1382,0 -15.4875,5.16252 3.3711,-0.61644 -6.4144,4.27631 -0.1119,0.0559 -6.3026,0.0559 -6.4145,0 -0.9015,-0.45076 -1.2366,-1.68739 -2.1381,-2.13816 -6.2922,-3.14609 2.815,4.95322 -4.2764,-2.13815 -7.0913,-7.09137 1.008,2.01587 -2.1381,-4.27631 -0.4508,-0.90153 -1.6874,-1.23664 -2.1382,-2.13816 -0.3187,-0.63747 0.3188,-1.50068 0,-2.13816 -0.4507,-0.90152 -1.6874,-1.23663 -2.1381,-2.13815 -0.4764,-0.95279 0.1524,-7.79026 0,-8.55263 -0.442,-2.21004 -1.6962,-4.20442 -2.1382,-6.41447 -0.016,-0.0823 0.011,-6.40398 0,-6.41446 -2.8509,-2.85088 -2.1381,3.56359 -2.1381,-2.13816 0,-4.27631 0,-8.55262 0,-12.82894 0,-0.71272 0,-1.42543 0,-2.13815 0,-0.71272 0.3187,-1.50068 0,-2.13816 -0.4508,-0.90153 -1.4255,-1.42544 -2.1382,-2.13816 -0.7127,-0.71272 -1.2366,-1.68739 -2.1381,-2.13815 -1.275,-0.63748 -3.2684,1.00793 -4.2764,0 -0.5039,-0.50397 0.6375,-1.81942 0,-2.13816 -1.2749,-0.63747 -2.924,0.45076 -4.2763,0 -0.9562,-0.31874 -1.2366,-1.68739 -2.1381,-2.13816 -0.6375,-0.31873 -1.4255,0 -2.1382,0 -1.4254,-0.71271 -2.9503,-1.25413 -4.2763,-2.13815 -0.8387,-0.5591 -1.182,-1.81942 -2.1382,-2.13816 -1.3522,-0.45076 -2.924,0.45076 -4.2763,0 -0.9562,-0.31873 -1.1819,-1.81942 -2.1381,-2.13815 -1.3523,-0.45077 -3.0014,0.63747 -4.2763,0 -0.6375,-0.31874 0.6374,-1.81942 0,-2.13816 -0.6168,-0.30839 -11.4624,0 -12.829,0 -0.7127,0 -1.6342,-0.50397 -2.1381,0 -0.504,0.50397 0.6374,1.81942 0,2.13816 -1.9125,0.95621 -4.5021,-0.95622 -6.4145,0 -8.8985,4.44924 2.2858,-0.14761 -2.1382,4.27631 -1.1269,1.12691 -2.7644,1.63419 -4.2763,2.13815 -0.6761,0.22539 -1.6342,-0.50396 -2.1381,0 -0.504,0.50397 0.3187,1.50069 0,2.13816 -0.4508,0.90153 -1.4255,1.42544 -2.1382,2.13816 -0.7127,0.71272 -1.2366,1.68739 -2.1381,2.13815 -0.6375,0.31874 -1.6342,-0.50397 -2.1382,0 -0.504,0.50397 0.3187,1.50068 0,2.13816 -0.4508,0.90153 -1.4254,1.42544 -2.1382,2.13816 -0.7127,0.71272 -1.2366,1.68739 -2.1381,2.13815 -0.6375,0.31874 -1.6342,-0.50397 -2.1382,0 -0.5039,0.50397 0.3188,1.50068 0,2.13816 -0.4507,0.90152 -1.4254,1.42544 -2.1381,2.13816 -0.7127,0.71271 -1.2366,1.68739 -2.1382,2.13815 -2.9492,1.47464 -1.9125,-2.58942 -4.2763,2.13816 -0.3187,0.63747 0.3188,1.50068 0,2.13815 -0.4508,0.90153 -1.6874,1.23663 -2.1381,2.13816 -0.3188,0.63747 0.5039,1.63419 0,2.13816 -1.4858,1.4857 -6.0996,-2.6409 -8.5527,-4.27632 z"
       id="path950"
       inkscape:connector-curvature="0"
       inkscape:export-xdpi="48.68"
       inkscape:export-ydpi="48.68" />
    <path
       style="opacity:1;fill:#ffffff;fill-opacity:1;stroke:#fffff2;stroke-width:0.52916664;stroke-miterlimit:4;stroke-dasharray:none;stroke-dashoffset:0;stroke-opacity:1"
       d="m -616.4131,90.68968 a 142.11904,142.11904 0 0 0 -47.89527,8.460981 v -0.01912 l -0.23201,0.09663 a 142.11904,142.11904 0 0 0 -12.24992,5.093229 l -135.3943,56.29682 a 135.20135,135.20135 0 0 1 20.94031,72.19043 135.20135,135.20135 0 0 1 -20.51709,71.28764 l 133.43631,56.43945 a 142.11904,142.11904 0 0 0 13.38159,5.66012 l 0.63511,0.26872 v -0.0367 a 142.11904,142.11904 0 0 0 47.89527,8.49973 A 142.11904,142.11904 0 0 0 -474.29412,232.80863 142.11904,142.11904 0 0 0 -616.4131,90.689665 Z m 0,61.87271 a 80.24614,80.24614 0 0 1 80.24627,80.24626 80.24614,80.24614 0 0 1 -80.24627,80.24575 80.24614,80.24614 0 0 1 -80.24627,-80.24575 80.24614,80.24614 0 0 1 80.24627,-80.24626 z"
       id="path830-3"
       inkscape:connector-curvature="0"
       inkscape:export-xdpi="45.691219"
       inkscape:export-ydpi="45.691219" />
    <path
       inkscape:connector-curvature="0"
       id="path1545"
       d="M -580.63231,-217.3205 A 134.92509,134.92509 0 0 0 -715.55745,-82.39536 134.92509,134.92509 0 0 0 -580.63231,52.529769 134.92509,134.92509 0 0 0 -445.70744,-82.39536 134.92509,134.92509 0 0 0 -580.63231,-217.3205 Z m 20.15828,23.75826 a 113.07764,113.07764 0 0 1 91.13798,91.97538 h -91.13798 z m -40.97198,0.096 v 91.87938 h -90.54464 a 113.07764,113.07764 0 0 1 90.54464,-91.87938 z m -90.1049,132.851367 h 90.1049 V 28.68315 a 113.07764,113.07764 0 0 1 -90.1049,-89.298023 z m 131.07688,0 h 90.77374 a 113.07764,113.07764 0 0 1 -90.77374,89.444776 z"
       style="opacity:1;fill:#ffffff;fill-opacity:1;stroke:#fffff2;stroke-width:0.50238061;stroke-miterlimit:4;stroke-dasharray:none;stroke-dashoffset:0;stroke-opacity:1"
       inkscape:export-xdpi="48.099998"
       inkscape:export-ydpi="48.099998" />
    <path
       style="opacity:1;fill:#ffffff;fill-opacity:1;stroke:#fffff2;stroke-width:0.49642071;stroke-miterlimit:4;stroke-dasharray:none;stroke-dashoffset:0;stroke-opacity:1"
       d="M -301.37788,-214.04007 A 133.32445,133.32445 0 0 0 -434.70203,-80.715923 133.32445,133.32445 0 0 0 -301.37788,52.608708 133.32445,133.32445 0 0 0 -168.05326,-80.715923 133.32445,133.32445 0 0 0 -301.37788,-214.04007 Z m 19.91951,23.47627 a 111.73617,111.73617 0 0 1 90.05657,90.884443 h -43.43497 a 70.132923,70.132923 0 0 0 -46.6216,-47.514303 z m -40.48595,0.0948 v 43.03773 a 70.132923,70.132923 0 0 0 -47.54382,47.751873 h -41.92681 a 111.73617,111.73617 0 0 1 89.47063,-90.789603 z m 20.76336,58.90696 a 50.836214,50.836214 0 0 1 50.8364,50.835916 50.836214,50.836214 0 0 1 -50.8364,50.836393 50.836214,50.836214 0 0 1 -50.8364,-50.836393 50.836214,50.836214 0 0 1 50.8364,-50.835916 z m -109.7995,72.368577 h 41.97473 a 70.132923,70.132923 0 0 0 47.06141,46.247101 v 41.991179 a 111.73617,111.73617 0 0 1 -89.03614,-88.23828 z m 175.71062,0 h 43.50806 a 111.73617,111.73617 0 0 1 -89.69659,88.383432 v -42.4518 a 70.132923,70.132923 0 0 0 46.18853,-45.931632 z"
       id="path1553"
       inkscape:connector-curvature="0"
       inkscape:export-xdpi="48.68"
       inkscape:export-ydpi="48.68" />
    <path
       style="opacity:1;fill:#ffffff;fill-opacity:1;stroke:#fffff2;stroke-width:0.52916664;stroke-miterlimit:4;stroke-dasharray:none;stroke-dashoffset:0;stroke-opacity:1"
       d="m -227.74006,70.014036 -46.38011,18.958015 -48.38102,7.181474 -30.99398,-23.434746 -18.14309,53.672691 -32.31687,44.41228 -31.84459,-2.55127 19.56057,62.83854 8.00108,51.83302 -13.90666,28.3223 47.56557,22.44204 49.42748,31.25339 7.87601,18.83399 43.1555,-10.56576 54.7734,-10.67377 20.70468,14.97583 22.30821,-41.68583 36.33163,-55.84207 24.31323,-11.08304 -16.31217,-37.8101 -7.37061,-44.79003 21.62091,-28.12696 -53.74868,-27.05778 -50.08168,-32.695164 z m -46.38011,39.232744 a 121.84431,121.84431 0 0 1 121.84425,121.84424 121.84431,121.84431 0 0 1 -121.84425,121.84424 121.84431,121.84431 0 0 1 -121.84425,-121.84424 121.84431,121.84431 0 0 1 121.84425,-121.84424 z"
       id="circle1575"
       inkscape:connector-curvature="0"
       inkscape:export-xdpi="45.691219"
       inkscape:export-ydpi="45.691219" />
  </g>
</svg>
